<mxfile host="Electron" agent="Mozilla/5.0 (Windows NT 10.0; Win64; x64) AppleWebKit/537.36 (KHTML, like Gecko) draw.io/26.2.2 Chrome/134.0.6998.178 Electron/35.1.2 Safari/537.36" version="26.2.2">
  <diagram name="Page-1" id="kUF-a8A93d-EpcaFiCx_">
    <mxGraphModel dx="2185" dy="1453" grid="1" gridSize="10" guides="1" tooltips="1" connect="1" arrows="1" fold="1" page="1" pageScale="1" pageWidth="850" pageHeight="1100" math="0" shadow="0">
      <root>
        <mxCell id="0" />
        <mxCell id="1" parent="0" />
        <mxCell id="nzcvLa-2H4HB1bDLHBJz-1" value="Peringatan kadaluarsa obat" style="swimlane;childLayout=stackLayout;resizeParent=1;resizeParentMax=0;startSize=20;html=1;" parent="1" vertex="1">
          <mxGeometry x="40" y="40" width="650" height="1000" as="geometry" />
        </mxCell>
        <mxCell id="nzcvLa-2H4HB1bDLHBJz-15" style="edgeStyle=orthogonalEdgeStyle;rounded=0;orthogonalLoop=1;jettySize=auto;html=1;" parent="nzcvLa-2H4HB1bDLHBJz-1" source="nzcvLa-2H4HB1bDLHBJz-14" target="nzcvLa-2H4HB1bDLHBJz-7" edge="1">
          <mxGeometry relative="1" as="geometry" />
        </mxCell>
        <mxCell id="nzcvLa-2H4HB1bDLHBJz-17" value="" style="edgeStyle=orthogonalEdgeStyle;rounded=0;orthogonalLoop=1;jettySize=auto;html=1;" parent="nzcvLa-2H4HB1bDLHBJz-1" source="nzcvLa-2H4HB1bDLHBJz-11" target="nzcvLa-2H4HB1bDLHBJz-16" edge="1">
          <mxGeometry relative="1" as="geometry" />
        </mxCell>
        <mxCell id="nzcvLa-2H4HB1bDLHBJz-19" value="" style="edgeStyle=orthogonalEdgeStyle;rounded=0;orthogonalLoop=1;jettySize=auto;html=1;" parent="nzcvLa-2H4HB1bDLHBJz-1" source="nzcvLa-2H4HB1bDLHBJz-16" target="nzcvLa-2H4HB1bDLHBJz-18" edge="1">
          <mxGeometry relative="1" as="geometry">
            <Array as="points">
              <mxPoint x="160" y="365" />
            </Array>
          </mxGeometry>
        </mxCell>
        <mxCell id="nzcvLa-2H4HB1bDLHBJz-2" value="Apoteker" style="swimlane;startSize=20;html=1;" parent="nzcvLa-2H4HB1bDLHBJz-1" vertex="1">
          <mxGeometry y="20" width="310" height="980" as="geometry" />
        </mxCell>
        <mxCell id="nzcvLa-2H4HB1bDLHBJz-12" style="edgeStyle=orthogonalEdgeStyle;rounded=0;orthogonalLoop=1;jettySize=auto;html=1;exitX=0.5;exitY=1;exitDx=0;exitDy=0;entryX=0.5;entryY=0;entryDx=0;entryDy=0;" parent="nzcvLa-2H4HB1bDLHBJz-2" source="nzcvLa-2H4HB1bDLHBJz-13" target="nzcvLa-2H4HB1bDLHBJz-14" edge="1">
          <mxGeometry relative="1" as="geometry" />
        </mxCell>
        <mxCell id="nzcvLa-2H4HB1bDLHBJz-13" value="" style="ellipse;whiteSpace=wrap;html=1;aspect=fixed;" parent="nzcvLa-2H4HB1bDLHBJz-2" vertex="1">
          <mxGeometry x="142.19" y="30" width="30" height="30" as="geometry" />
        </mxCell>
        <mxCell id="nzcvLa-2H4HB1bDLHBJz-14" value="Login" style="rounded=1;whiteSpace=wrap;html=1;" parent="nzcvLa-2H4HB1bDLHBJz-2" vertex="1">
          <mxGeometry x="127.19" y="80" width="60" height="20" as="geometry" />
        </mxCell>
        <mxCell id="nzcvLa-2H4HB1bDLHBJz-16" value="mengakses menu&amp;nbsp;&lt;br&gt;&quot;Monitoring kadaluarsa" style="rounded=1;whiteSpace=wrap;html=1;" parent="nzcvLa-2H4HB1bDLHBJz-2" vertex="1">
          <mxGeometry x="102.19" y="252.5" width="105.62" height="50" as="geometry" />
        </mxCell>
        <mxCell id="nzcvLa-2H4HB1bDLHBJz-37" value="" style="ellipse;whiteSpace=wrap;html=1;aspect=fixed;" parent="nzcvLa-2H4HB1bDLHBJz-2" vertex="1">
          <mxGeometry x="140" y="930" width="30" height="30" as="geometry" />
        </mxCell>
        <mxCell id="nzcvLa-2H4HB1bDLHBJz-40" style="edgeStyle=orthogonalEdgeStyle;rounded=0;orthogonalLoop=1;jettySize=auto;html=1;exitX=0.5;exitY=1;exitDx=0;exitDy=0;entryX=0.5;entryY=0;entryDx=0;entryDy=0;" parent="nzcvLa-2H4HB1bDLHBJz-2" source="nzcvLa-2H4HB1bDLHBJz-38" target="nzcvLa-2H4HB1bDLHBJz-37" edge="1">
          <mxGeometry relative="1" as="geometry" />
        </mxCell>
        <mxCell id="nzcvLa-2H4HB1bDLHBJz-38" value="Logout" style="rounded=1;whiteSpace=wrap;html=1;" parent="nzcvLa-2H4HB1bDLHBJz-2" vertex="1">
          <mxGeometry x="125" y="880" width="60" height="20" as="geometry" />
        </mxCell>
        <mxCell id="nzcvLa-2H4HB1bDLHBJz-49" style="edgeStyle=orthogonalEdgeStyle;rounded=0;orthogonalLoop=1;jettySize=auto;html=1;exitX=0.5;exitY=1;exitDx=0;exitDy=0;" parent="nzcvLa-2H4HB1bDLHBJz-2" source="nzcvLa-2H4HB1bDLHBJz-44" edge="1">
          <mxGeometry relative="1" as="geometry">
            <mxPoint x="154.70967741935476" y="670" as="targetPoint" />
          </mxGeometry>
        </mxCell>
        <mxCell id="nzcvLa-2H4HB1bDLHBJz-44" value="Memverifikasi dan menandai tindakan" style="rounded=1;whiteSpace=wrap;html=1;" parent="nzcvLa-2H4HB1bDLHBJz-2" vertex="1">
          <mxGeometry x="95" y="580" width="120" height="60" as="geometry" />
        </mxCell>
        <mxCell id="nzcvLa-2H4HB1bDLHBJz-48" value="" style="endArrow=none;html=1;rounded=0;strokeWidth=3;" parent="nzcvLa-2H4HB1bDLHBJz-2" edge="1">
          <mxGeometry width="50" height="50" relative="1" as="geometry">
            <mxPoint x="20" y="670" as="sourcePoint" />
            <mxPoint x="290" y="670" as="targetPoint" />
          </mxGeometry>
        </mxCell>
        <mxCell id="nzcvLa-2H4HB1bDLHBJz-60" style="rounded=0;orthogonalLoop=1;jettySize=auto;html=1;exitX=0.5;exitY=1;exitDx=0;exitDy=0;" parent="nzcvLa-2H4HB1bDLHBJz-2" source="nzcvLa-2H4HB1bDLHBJz-50" edge="1">
          <mxGeometry relative="1" as="geometry">
            <mxPoint x="100" y="780" as="targetPoint" />
          </mxGeometry>
        </mxCell>
        <mxCell id="nzcvLa-2H4HB1bDLHBJz-50" value="Dihabiskan" style="rounded=1;whiteSpace=wrap;html=1;" parent="nzcvLa-2H4HB1bDLHBJz-2" vertex="1">
          <mxGeometry x="16.410000000000004" y="720" width="60" height="20" as="geometry" />
        </mxCell>
        <mxCell id="nzcvLa-2H4HB1bDLHBJz-61" style="rounded=0;orthogonalLoop=1;jettySize=auto;html=1;exitX=0.5;exitY=1;exitDx=0;exitDy=0;" parent="nzcvLa-2H4HB1bDLHBJz-2" source="nzcvLa-2H4HB1bDLHBJz-51" edge="1">
          <mxGeometry relative="1" as="geometry">
            <mxPoint x="140" y="780" as="targetPoint" />
          </mxGeometry>
        </mxCell>
        <mxCell id="nzcvLa-2H4HB1bDLHBJz-51" value="Dikarantina" style="rounded=1;whiteSpace=wrap;html=1;" parent="nzcvLa-2H4HB1bDLHBJz-2" vertex="1">
          <mxGeometry x="88.6" y="720" width="65" height="20" as="geometry" />
        </mxCell>
        <mxCell id="nzcvLa-2H4HB1bDLHBJz-62" style="rounded=0;orthogonalLoop=1;jettySize=auto;html=1;exitX=0.5;exitY=1;exitDx=0;exitDy=0;" parent="nzcvLa-2H4HB1bDLHBJz-2" source="nzcvLa-2H4HB1bDLHBJz-52" edge="1">
          <mxGeometry relative="1" as="geometry">
            <mxPoint x="170" y="780" as="targetPoint" />
          </mxGeometry>
        </mxCell>
        <mxCell id="nzcvLa-2H4HB1bDLHBJz-52" value="Retur" style="rounded=1;whiteSpace=wrap;html=1;" parent="nzcvLa-2H4HB1bDLHBJz-2" vertex="1">
          <mxGeometry x="163.6" y="720" width="40" height="20" as="geometry" />
        </mxCell>
        <mxCell id="nzcvLa-2H4HB1bDLHBJz-63" style="rounded=0;orthogonalLoop=1;jettySize=auto;html=1;exitX=0.5;exitY=1;exitDx=0;exitDy=0;" parent="nzcvLa-2H4HB1bDLHBJz-2" source="nzcvLa-2H4HB1bDLHBJz-53" edge="1">
          <mxGeometry relative="1" as="geometry">
            <mxPoint x="200" y="780" as="targetPoint" />
          </mxGeometry>
        </mxCell>
        <mxCell id="nzcvLa-2H4HB1bDLHBJz-53" value="Dimusnahkan" style="rounded=1;whiteSpace=wrap;html=1;" parent="nzcvLa-2H4HB1bDLHBJz-2" vertex="1">
          <mxGeometry x="213.6" y="720" width="80" height="20" as="geometry" />
        </mxCell>
        <mxCell id="nzcvLa-2H4HB1bDLHBJz-55" value="" style="endArrow=classic;html=1;rounded=0;" parent="nzcvLa-2H4HB1bDLHBJz-2" edge="1">
          <mxGeometry width="50" height="50" relative="1" as="geometry">
            <mxPoint x="120.78" y="670" as="sourcePoint" />
            <mxPoint x="120.78" y="720" as="targetPoint" />
          </mxGeometry>
        </mxCell>
        <mxCell id="nzcvLa-2H4HB1bDLHBJz-56" value="" style="endArrow=classic;html=1;rounded=0;" parent="nzcvLa-2H4HB1bDLHBJz-2" edge="1">
          <mxGeometry width="50" height="50" relative="1" as="geometry">
            <mxPoint x="183.28" y="670" as="sourcePoint" />
            <mxPoint x="183.28" y="720" as="targetPoint" />
          </mxGeometry>
        </mxCell>
        <mxCell id="nzcvLa-2H4HB1bDLHBJz-57" value="" style="endArrow=classic;html=1;rounded=0;" parent="nzcvLa-2H4HB1bDLHBJz-2" edge="1">
          <mxGeometry width="50" height="50" relative="1" as="geometry">
            <mxPoint x="253.27999999999997" y="670" as="sourcePoint" />
            <mxPoint x="253.27999999999997" y="720" as="targetPoint" />
          </mxGeometry>
        </mxCell>
        <mxCell id="nzcvLa-2H4HB1bDLHBJz-58" value="" style="endArrow=none;html=1;rounded=0;strokeWidth=3;" parent="nzcvLa-2H4HB1bDLHBJz-2" edge="1">
          <mxGeometry width="50" height="50" relative="1" as="geometry">
            <mxPoint x="20" y="780" as="sourcePoint" />
            <mxPoint x="290" y="780" as="targetPoint" />
          </mxGeometry>
        </mxCell>
        <mxCell id="nzcvLa-2H4HB1bDLHBJz-65" value="klik &quot;Update status&quot;" style="rounded=1;whiteSpace=wrap;html=1;" parent="nzcvLa-2H4HB1bDLHBJz-2" vertex="1">
          <mxGeometry x="95" y="810" width="120" height="30" as="geometry" />
        </mxCell>
        <mxCell id="nzcvLa-2H4HB1bDLHBJz-3" value="system" style="swimlane;startSize=20;html=1;" parent="nzcvLa-2H4HB1bDLHBJz-1" vertex="1">
          <mxGeometry x="310" y="20" width="340" height="980" as="geometry" />
        </mxCell>
        <mxCell id="nzcvLa-2H4HB1bDLHBJz-7" value="Memverifikasi level akses" style="rounded=1;whiteSpace=wrap;html=1;" parent="nzcvLa-2H4HB1bDLHBJz-3" vertex="1">
          <mxGeometry x="118.75" y="70" width="102.5" height="40" as="geometry" />
        </mxCell>
        <mxCell id="nzcvLa-2H4HB1bDLHBJz-29" style="edgeStyle=orthogonalEdgeStyle;rounded=0;orthogonalLoop=1;jettySize=auto;html=1;exitX=0;exitY=0.5;exitDx=0;exitDy=0;entryX=0.5;entryY=0;entryDx=0;entryDy=0;" parent="nzcvLa-2H4HB1bDLHBJz-3" source="nzcvLa-2H4HB1bDLHBJz-22" target="nzcvLa-2H4HB1bDLHBJz-24" edge="1">
          <mxGeometry relative="1" as="geometry" />
        </mxCell>
        <mxCell id="nzcvLa-2H4HB1bDLHBJz-42" style="edgeStyle=orthogonalEdgeStyle;rounded=0;orthogonalLoop=1;jettySize=auto;html=1;exitX=1;exitY=0.5;exitDx=0;exitDy=0;entryX=0.5;entryY=0;entryDx=0;entryDy=0;" parent="nzcvLa-2H4HB1bDLHBJz-3" source="nzcvLa-2H4HB1bDLHBJz-22" target="nzcvLa-2H4HB1bDLHBJz-41" edge="1">
          <mxGeometry relative="1" as="geometry" />
        </mxCell>
        <mxCell id="nzcvLa-2H4HB1bDLHBJz-22" value="" style="rhombus;whiteSpace=wrap;html=1;" parent="nzcvLa-2H4HB1bDLHBJz-3" vertex="1">
          <mxGeometry x="148.05" y="470" width="38.76" height="40" as="geometry" />
        </mxCell>
        <mxCell id="nzcvLa-2H4HB1bDLHBJz-24" value="Menampilkan pemberitahuan bahwa tidak ada obat yang kadaluarsa" style="rounded=1;whiteSpace=wrap;html=1;" parent="nzcvLa-2H4HB1bDLHBJz-3" vertex="1">
          <mxGeometry x="17.81" y="520" width="120" height="60" as="geometry" />
        </mxCell>
        <mxCell id="nzcvLa-2H4HB1bDLHBJz-23" style="edgeStyle=orthogonalEdgeStyle;rounded=0;orthogonalLoop=1;jettySize=auto;html=1;exitX=0.5;exitY=1;exitDx=0;exitDy=0;exitPerimeter=0;entryX=0.5;entryY=0;entryDx=0;entryDy=0;" parent="nzcvLa-2H4HB1bDLHBJz-3" source="nzcvLa-2H4HB1bDLHBJz-6" edge="1">
          <mxGeometry relative="1" as="geometry">
            <mxPoint x="167.80999999999983" y="470" as="targetPoint" />
          </mxGeometry>
        </mxCell>
        <mxCell id="nzcvLa-2H4HB1bDLHBJz-6" value="" style="verticalLabelPosition=bottom;verticalAlign=top;html=1;shape=mxgraph.flowchart.collate;" parent="nzcvLa-2H4HB1bDLHBJz-3" vertex="1">
          <mxGeometry x="152.81" y="420" width="30" height="30" as="geometry" />
        </mxCell>
        <mxCell id="nzcvLa-2H4HB1bDLHBJz-9" style="edgeStyle=orthogonalEdgeStyle;rounded=0;orthogonalLoop=1;jettySize=auto;html=1;exitX=0.5;exitY=1;exitDx=0;exitDy=0;entryX=0.5;entryY=0;entryDx=0;entryDy=0;" parent="nzcvLa-2H4HB1bDLHBJz-3" source="nzcvLa-2H4HB1bDLHBJz-10" target="nzcvLa-2H4HB1bDLHBJz-11" edge="1">
          <mxGeometry relative="1" as="geometry" />
        </mxCell>
        <mxCell id="nzcvLa-2H4HB1bDLHBJz-10" value="Level akses diverifikasi sebagai Apoteker" style="rounded=1;whiteSpace=wrap;html=1;" parent="nzcvLa-2H4HB1bDLHBJz-3" vertex="1">
          <mxGeometry x="119.37" y="190" width="101.25" height="50" as="geometry" />
        </mxCell>
        <mxCell id="nzcvLa-2H4HB1bDLHBJz-11" value="Menampilkan Dashboard" style="rounded=1;whiteSpace=wrap;html=1;" parent="nzcvLa-2H4HB1bDLHBJz-3" vertex="1">
          <mxGeometry x="119.37" y="260" width="101.25" height="35" as="geometry" />
        </mxCell>
        <mxCell id="nzcvLa-2H4HB1bDLHBJz-18" value="System memproses obat yang kadalursa dalam waktu 1-3 bulan" style="rounded=1;whiteSpace=wrap;html=1;" parent="nzcvLa-2H4HB1bDLHBJz-3" vertex="1">
          <mxGeometry x="115" y="310" width="105.62" height="80" as="geometry" />
        </mxCell>
        <mxCell id="nzcvLa-2H4HB1bDLHBJz-21" style="edgeStyle=orthogonalEdgeStyle;rounded=0;orthogonalLoop=1;jettySize=auto;html=1;entryX=0.5;entryY=0;entryDx=0;entryDy=0;entryPerimeter=0;" parent="nzcvLa-2H4HB1bDLHBJz-3" source="nzcvLa-2H4HB1bDLHBJz-18" target="nzcvLa-2H4HB1bDLHBJz-6" edge="1">
          <mxGeometry relative="1" as="geometry" />
        </mxCell>
        <mxCell id="nzcvLa-2H4HB1bDLHBJz-28" style="edgeStyle=orthogonalEdgeStyle;rounded=0;orthogonalLoop=1;jettySize=auto;html=1;exitX=0.5;exitY=1;exitDx=0;exitDy=0;exitPerimeter=0;entryX=0.5;entryY=0;entryDx=0;entryDy=0;" parent="nzcvLa-2H4HB1bDLHBJz-3" source="nzcvLa-2H4HB1bDLHBJz-20" target="nzcvLa-2H4HB1bDLHBJz-10" edge="1">
          <mxGeometry relative="1" as="geometry" />
        </mxCell>
        <mxCell id="nzcvLa-2H4HB1bDLHBJz-20" value="" style="verticalLabelPosition=bottom;verticalAlign=top;html=1;shape=mxgraph.flowchart.collate;" parent="nzcvLa-2H4HB1bDLHBJz-3" vertex="1">
          <mxGeometry x="155" y="130" width="30" height="30" as="geometry" />
        </mxCell>
        <mxCell id="nzcvLa-2H4HB1bDLHBJz-26" style="edgeStyle=orthogonalEdgeStyle;rounded=0;orthogonalLoop=1;jettySize=auto;html=1;exitX=0.5;exitY=1;exitDx=0;exitDy=0;entryX=0.5;entryY=0;entryDx=0;entryDy=0;entryPerimeter=0;" parent="nzcvLa-2H4HB1bDLHBJz-3" source="nzcvLa-2H4HB1bDLHBJz-7" target="nzcvLa-2H4HB1bDLHBJz-20" edge="1">
          <mxGeometry relative="1" as="geometry" />
        </mxCell>
        <mxCell id="nzcvLa-2H4HB1bDLHBJz-30" value="tidak ada" style="text;html=1;align=center;verticalAlign=middle;resizable=0;points=[];autosize=1;strokeColor=none;fillColor=none;" parent="nzcvLa-2H4HB1bDLHBJz-3" vertex="1">
          <mxGeometry x="72.81" y="461" width="70" height="30" as="geometry" />
        </mxCell>
        <mxCell id="nzcvLa-2H4HB1bDLHBJz-41" value="Menampilkan obat yang kadaluarsa" style="rounded=1;whiteSpace=wrap;html=1;" parent="nzcvLa-2H4HB1bDLHBJz-3" vertex="1">
          <mxGeometry x="197.81" y="520" width="120" height="60" as="geometry" />
        </mxCell>
        <mxCell id="nzcvLa-2H4HB1bDLHBJz-46" value="ada" style="text;html=1;align=center;verticalAlign=middle;resizable=0;points=[];autosize=1;strokeColor=none;fillColor=none;" parent="nzcvLa-2H4HB1bDLHBJz-3" vertex="1">
          <mxGeometry x="210" y="460" width="40" height="30" as="geometry" />
        </mxCell>
        <mxCell id="nzcvLa-2H4HB1bDLHBJz-69" value="System mengupdate status" style="rounded=1;whiteSpace=wrap;html=1;" parent="nzcvLa-2H4HB1bDLHBJz-3" vertex="1">
          <mxGeometry x="107.43" y="710" width="120" height="30" as="geometry" />
        </mxCell>
        <mxCell id="nzcvLa-2H4HB1bDLHBJz-75" style="edgeStyle=orthogonalEdgeStyle;rounded=0;orthogonalLoop=1;jettySize=auto;html=1;exitX=0.5;exitY=1;exitDx=0;exitDy=0;exitPerimeter=0;" parent="nzcvLa-2H4HB1bDLHBJz-3" source="nzcvLa-2H4HB1bDLHBJz-71" target="nzcvLa-2H4HB1bDLHBJz-74" edge="1">
          <mxGeometry relative="1" as="geometry" />
        </mxCell>
        <mxCell id="nzcvLa-2H4HB1bDLHBJz-71" value="" style="verticalLabelPosition=bottom;verticalAlign=top;html=1;shape=mxgraph.flowchart.collate;" parent="nzcvLa-2H4HB1bDLHBJz-3" vertex="1">
          <mxGeometry x="144.86" y="780" width="45.14" height="50" as="geometry" />
        </mxCell>
        <mxCell id="nzcvLa-2H4HB1bDLHBJz-73" style="edgeStyle=orthogonalEdgeStyle;rounded=0;orthogonalLoop=1;jettySize=auto;html=1;exitX=0.5;exitY=1;exitDx=0;exitDy=0;entryX=0.5;entryY=0;entryDx=0;entryDy=0;entryPerimeter=0;" parent="nzcvLa-2H4HB1bDLHBJz-3" source="nzcvLa-2H4HB1bDLHBJz-69" target="nzcvLa-2H4HB1bDLHBJz-71" edge="1">
          <mxGeometry relative="1" as="geometry" />
        </mxCell>
        <mxCell id="nzcvLa-2H4HB1bDLHBJz-74" value="Menampilkan konfirmasi update status berhasil" style="rounded=1;whiteSpace=wrap;html=1;" parent="nzcvLa-2H4HB1bDLHBJz-3" vertex="1">
          <mxGeometry x="107.43" y="865" width="120" height="50" as="geometry" />
        </mxCell>
        <mxCell id="nzcvLa-2H4HB1bDLHBJz-43" style="edgeStyle=orthogonalEdgeStyle;rounded=0;orthogonalLoop=1;jettySize=auto;html=1;entryX=0;entryY=0.5;entryDx=0;entryDy=0;" parent="nzcvLa-2H4HB1bDLHBJz-1" source="nzcvLa-2H4HB1bDLHBJz-24" target="nzcvLa-2H4HB1bDLHBJz-38" edge="1">
          <mxGeometry relative="1" as="geometry">
            <Array as="points">
              <mxPoint x="10" y="570" />
              <mxPoint x="10" y="910" />
            </Array>
          </mxGeometry>
        </mxCell>
        <mxCell id="nzcvLa-2H4HB1bDLHBJz-45" value="" style="edgeStyle=orthogonalEdgeStyle;rounded=0;orthogonalLoop=1;jettySize=auto;html=1;" parent="nzcvLa-2H4HB1bDLHBJz-1" source="nzcvLa-2H4HB1bDLHBJz-41" target="nzcvLa-2H4HB1bDLHBJz-44" edge="1">
          <mxGeometry relative="1" as="geometry">
            <Array as="points">
              <mxPoint x="488" y="630" />
            </Array>
          </mxGeometry>
        </mxCell>
        <mxCell id="nzcvLa-2H4HB1bDLHBJz-70" style="edgeStyle=orthogonalEdgeStyle;rounded=0;orthogonalLoop=1;jettySize=auto;html=1;exitX=1;exitY=0.5;exitDx=0;exitDy=0;entryX=0;entryY=0.5;entryDx=0;entryDy=0;" parent="nzcvLa-2H4HB1bDLHBJz-1" source="nzcvLa-2H4HB1bDLHBJz-65" target="nzcvLa-2H4HB1bDLHBJz-69" edge="1">
          <mxGeometry relative="1" as="geometry">
            <Array as="points">
              <mxPoint x="330" y="845" />
              <mxPoint x="330" y="745" />
            </Array>
          </mxGeometry>
        </mxCell>
        <mxCell id="nzcvLa-2H4HB1bDLHBJz-76" style="edgeStyle=orthogonalEdgeStyle;rounded=0;orthogonalLoop=1;jettySize=auto;html=1;exitX=0;exitY=0.5;exitDx=0;exitDy=0;entryX=1;entryY=0.5;entryDx=0;entryDy=0;" parent="nzcvLa-2H4HB1bDLHBJz-1" source="nzcvLa-2H4HB1bDLHBJz-74" target="nzcvLa-2H4HB1bDLHBJz-38" edge="1">
          <mxGeometry relative="1" as="geometry" />
        </mxCell>
        <mxCell id="nzcvLa-2H4HB1bDLHBJz-54" value="" style="endArrow=classic;html=1;rounded=0;" parent="1" target="nzcvLa-2H4HB1bDLHBJz-50" edge="1">
          <mxGeometry width="50" height="50" relative="1" as="geometry">
            <mxPoint x="86" y="730" as="sourcePoint" />
            <mxPoint x="210" y="850" as="targetPoint" />
          </mxGeometry>
        </mxCell>
        <mxCell id="nzcvLa-2H4HB1bDLHBJz-66" value="" style="endArrow=classic;html=1;rounded=0;" parent="1" target="nzcvLa-2H4HB1bDLHBJz-65" edge="1">
          <mxGeometry width="50" height="50" relative="1" as="geometry">
            <mxPoint x="195" y="840" as="sourcePoint" />
            <mxPoint x="210" y="780" as="targetPoint" />
          </mxGeometry>
        </mxCell>
        <mxCell id="yZ1VxGtoj1wX081cR8Rx-1" value="" style="whiteSpace=wrap;html=1;aspect=fixed;" vertex="1" parent="1">
          <mxGeometry x="830" y="70" width="230" height="230" as="geometry" />
        </mxCell>
        <mxCell id="yZ1VxGtoj1wX081cR8Rx-2" style="rounded=0;orthogonalLoop=1;jettySize=auto;html=1;exitX=0.5;exitY=0.5;exitDx=0;exitDy=0;exitPerimeter=0;" edge="1" parent="1" source="yZ1VxGtoj1wX081cR8Rx-4" target="yZ1VxGtoj1wX081cR8Rx-9">
          <mxGeometry relative="1" as="geometry" />
        </mxCell>
        <mxCell id="yZ1VxGtoj1wX081cR8Rx-3" style="rounded=0;orthogonalLoop=1;jettySize=auto;html=1;exitX=0.5;exitY=0.5;exitDx=0;exitDy=0;exitPerimeter=0;" edge="1" parent="1" source="yZ1VxGtoj1wX081cR8Rx-4" target="yZ1VxGtoj1wX081cR8Rx-10">
          <mxGeometry relative="1" as="geometry" />
        </mxCell>
        <mxCell id="yZ1VxGtoj1wX081cR8Rx-4" value="Admin" style="shape=umlActor;verticalLabelPosition=bottom;verticalAlign=top;html=1;outlineConnect=0;" vertex="1" parent="1">
          <mxGeometry x="1080" y="168.75" width="20" height="37.5" as="geometry" />
        </mxCell>
        <mxCell id="yZ1VxGtoj1wX081cR8Rx-7" style="rounded=0;orthogonalLoop=1;jettySize=auto;html=1;exitX=0.5;exitY=0.5;exitDx=0;exitDy=0;exitPerimeter=0;" edge="1" parent="1" source="yZ1VxGtoj1wX081cR8Rx-8" target="yZ1VxGtoj1wX081cR8Rx-10">
          <mxGeometry relative="1" as="geometry" />
        </mxCell>
        <mxCell id="yZ1VxGtoj1wX081cR8Rx-8" value="Apoteker" style="shape=umlActor;verticalLabelPosition=bottom;verticalAlign=top;html=1;outlineConnect=0;" vertex="1" parent="1">
          <mxGeometry x="790" y="167.5" width="20" height="40" as="geometry" />
        </mxCell>
        <mxCell id="yZ1VxGtoj1wX081cR8Rx-9" value="Cek kadaluarsa" style="ellipse;whiteSpace=wrap;html=1;" vertex="1" parent="1">
          <mxGeometry x="900" y="160" width="80" height="40" as="geometry" />
        </mxCell>
        <mxCell id="yZ1VxGtoj1wX081cR8Rx-10" value="Beri notifikasi" style="ellipse;whiteSpace=wrap;html=1;" vertex="1" parent="1">
          <mxGeometry x="905" y="215" width="70" height="40" as="geometry" />
        </mxCell>
        <mxCell id="yZ1VxGtoj1wX081cR8Rx-11" style="rounded=0;orthogonalLoop=1;jettySize=auto;html=1;exitX=0.5;exitY=0.5;exitDx=0;exitDy=0;exitPerimeter=0;entryX=0.009;entryY=0.63;entryDx=0;entryDy=0;entryPerimeter=0;" edge="1" parent="1" source="yZ1VxGtoj1wX081cR8Rx-8" target="yZ1VxGtoj1wX081cR8Rx-9">
          <mxGeometry relative="1" as="geometry" />
        </mxCell>
        <mxCell id="yZ1VxGtoj1wX081cR8Rx-14" style="rounded=0;orthogonalLoop=1;jettySize=auto;html=1;exitX=1;exitY=1;exitDx=0;exitDy=0;entryX=0.5;entryY=0;entryDx=0;entryDy=0;dashed=1;" edge="1" parent="1" source="yZ1VxGtoj1wX081cR8Rx-13" target="yZ1VxGtoj1wX081cR8Rx-9">
          <mxGeometry relative="1" as="geometry" />
        </mxCell>
        <mxCell id="yZ1VxGtoj1wX081cR8Rx-15" value="Extend" style="edgeLabel;html=1;align=center;verticalAlign=middle;resizable=0;points=[];" vertex="1" connectable="0" parent="yZ1VxGtoj1wX081cR8Rx-14">
          <mxGeometry x="-0.3008" relative="1" as="geometry">
            <mxPoint x="5" y="5" as="offset" />
          </mxGeometry>
        </mxCell>
        <mxCell id="yZ1VxGtoj1wX081cR8Rx-13" value="monitoring kadaluarsa" style="ellipse;whiteSpace=wrap;html=1;" vertex="1" parent="1">
          <mxGeometry x="840" y="80" width="90" height="40" as="geometry" />
        </mxCell>
        <mxCell id="yZ1VxGtoj1wX081cR8Rx-48" style="edgeStyle=orthogonalEdgeStyle;rounded=0;orthogonalLoop=1;jettySize=auto;html=1;endArrow=none;startFill=0;" edge="1" parent="1" source="yZ1VxGtoj1wX081cR8Rx-16" target="yZ1VxGtoj1wX081cR8Rx-35">
          <mxGeometry relative="1" as="geometry" />
        </mxCell>
        <mxCell id="yZ1VxGtoj1wX081cR8Rx-16" value="User" style="swimlane;fontStyle=1;align=center;verticalAlign=top;childLayout=stackLayout;horizontal=1;startSize=26;horizontalStack=0;resizeParent=1;resizeParentMax=0;resizeLast=0;collapsible=1;marginBottom=0;whiteSpace=wrap;html=1;" vertex="1" parent="1">
          <mxGeometry x="710" y="360" width="160" height="216" as="geometry" />
        </mxCell>
        <mxCell id="yZ1VxGtoj1wX081cR8Rx-17" value="- idUser&lt;span style=&quot;white-space: pre;&quot;&gt;&#x9;&lt;/span&gt;: int" style="text;strokeColor=none;fillColor=none;align=left;verticalAlign=top;spacingLeft=4;spacingRight=4;overflow=hidden;rotatable=0;points=[[0,0.5],[1,0.5]];portConstraint=eastwest;whiteSpace=wrap;html=1;" vertex="1" parent="yZ1VxGtoj1wX081cR8Rx-16">
          <mxGeometry y="26" width="160" height="26" as="geometry" />
        </mxCell>
        <mxCell id="yZ1VxGtoj1wX081cR8Rx-18" value="- nama&lt;span style=&quot;white-space: pre;&quot;&gt;&#x9;&lt;/span&gt;: string" style="text;strokeColor=none;fillColor=none;align=left;verticalAlign=top;spacingLeft=4;spacingRight=4;overflow=hidden;rotatable=0;points=[[0,0.5],[1,0.5]];portConstraint=eastwest;whiteSpace=wrap;html=1;" vertex="1" parent="yZ1VxGtoj1wX081cR8Rx-16">
          <mxGeometry y="52" width="160" height="26" as="geometry" />
        </mxCell>
        <mxCell id="yZ1VxGtoj1wX081cR8Rx-19" value="- username : string" style="text;strokeColor=none;fillColor=none;align=left;verticalAlign=top;spacingLeft=4;spacingRight=4;overflow=hidden;rotatable=0;points=[[0,0.5],[1,0.5]];portConstraint=eastwest;whiteSpace=wrap;html=1;" vertex="1" parent="yZ1VxGtoj1wX081cR8Rx-16">
          <mxGeometry y="78" width="160" height="26" as="geometry" />
        </mxCell>
        <mxCell id="yZ1VxGtoj1wX081cR8Rx-20" value="- password : string" style="text;strokeColor=none;fillColor=none;align=left;verticalAlign=top;spacingLeft=4;spacingRight=4;overflow=hidden;rotatable=0;points=[[0,0.5],[1,0.5]];portConstraint=eastwest;whiteSpace=wrap;html=1;" vertex="1" parent="yZ1VxGtoj1wX081cR8Rx-16">
          <mxGeometry y="104" width="160" height="26" as="geometry" />
        </mxCell>
        <mxCell id="yZ1VxGtoj1wX081cR8Rx-21" value="- role&lt;span style=&quot;white-space: pre;&quot;&gt;&#x9;&lt;/span&gt;: string" style="text;strokeColor=none;fillColor=none;align=left;verticalAlign=top;spacingLeft=4;spacingRight=4;overflow=hidden;rotatable=0;points=[[0,0.5],[1,0.5]];portConstraint=eastwest;whiteSpace=wrap;html=1;" vertex="1" parent="yZ1VxGtoj1wX081cR8Rx-16">
          <mxGeometry y="130" width="160" height="26" as="geometry" />
        </mxCell>
        <mxCell id="yZ1VxGtoj1wX081cR8Rx-22" value="" style="line;strokeWidth=1;fillColor=none;align=left;verticalAlign=middle;spacingTop=-1;spacingLeft=3;spacingRight=3;rotatable=0;labelPosition=right;points=[];portConstraint=eastwest;strokeColor=inherit;" vertex="1" parent="yZ1VxGtoj1wX081cR8Rx-16">
          <mxGeometry y="156" width="160" height="8" as="geometry" />
        </mxCell>
        <mxCell id="yZ1VxGtoj1wX081cR8Rx-23" value="+ login()" style="text;strokeColor=none;fillColor=none;align=left;verticalAlign=top;spacingLeft=4;spacingRight=4;overflow=hidden;rotatable=0;points=[[0,0.5],[1,0.5]];portConstraint=eastwest;whiteSpace=wrap;html=1;" vertex="1" parent="yZ1VxGtoj1wX081cR8Rx-16">
          <mxGeometry y="164" width="160" height="26" as="geometry" />
        </mxCell>
        <mxCell id="yZ1VxGtoj1wX081cR8Rx-24" value="+ logout()" style="text;strokeColor=none;fillColor=none;align=left;verticalAlign=top;spacingLeft=4;spacingRight=4;overflow=hidden;rotatable=0;points=[[0,0.5],[1,0.5]];portConstraint=eastwest;whiteSpace=wrap;html=1;" vertex="1" parent="yZ1VxGtoj1wX081cR8Rx-16">
          <mxGeometry y="190" width="160" height="26" as="geometry" />
        </mxCell>
        <mxCell id="yZ1VxGtoj1wX081cR8Rx-49" style="edgeStyle=orthogonalEdgeStyle;rounded=0;orthogonalLoop=1;jettySize=auto;html=1;endArrow=none;startFill=0;" edge="1" parent="1" source="yZ1VxGtoj1wX081cR8Rx-25" target="yZ1VxGtoj1wX081cR8Rx-45">
          <mxGeometry relative="1" as="geometry" />
        </mxCell>
        <mxCell id="yZ1VxGtoj1wX081cR8Rx-25" value="Obat" style="swimlane;fontStyle=1;align=center;verticalAlign=top;childLayout=stackLayout;horizontal=1;startSize=26;horizontalStack=0;resizeParent=1;resizeParentMax=0;resizeLast=0;collapsible=1;marginBottom=0;whiteSpace=wrap;html=1;" vertex="1" parent="1">
          <mxGeometry x="1000" y="360" width="160" height="216" as="geometry" />
        </mxCell>
        <mxCell id="yZ1VxGtoj1wX081cR8Rx-26" value="- idObat&lt;span style=&quot;white-space: pre;&quot;&gt;&#x9;&lt;/span&gt;: int" style="text;strokeColor=none;fillColor=none;align=left;verticalAlign=top;spacingLeft=4;spacingRight=4;overflow=hidden;rotatable=0;points=[[0,0.5],[1,0.5]];portConstraint=eastwest;whiteSpace=wrap;html=1;" vertex="1" parent="yZ1VxGtoj1wX081cR8Rx-25">
          <mxGeometry y="26" width="160" height="26" as="geometry" />
        </mxCell>
        <mxCell id="yZ1VxGtoj1wX081cR8Rx-27" value="- nama&lt;span style=&quot;white-space: pre;&quot;&gt;&#x9;&lt;/span&gt;: string" style="text;strokeColor=none;fillColor=none;align=left;verticalAlign=top;spacingLeft=4;spacingRight=4;overflow=hidden;rotatable=0;points=[[0,0.5],[1,0.5]];portConstraint=eastwest;whiteSpace=wrap;html=1;" vertex="1" parent="yZ1VxGtoj1wX081cR8Rx-25">
          <mxGeometry y="52" width="160" height="26" as="geometry" />
        </mxCell>
        <mxCell id="yZ1VxGtoj1wX081cR8Rx-28" value="- kode&lt;span style=&quot;white-space: pre;&quot;&gt;&#x9;&lt;/span&gt;: string" style="text;strokeColor=none;fillColor=none;align=left;verticalAlign=top;spacingLeft=4;spacingRight=4;overflow=hidden;rotatable=0;points=[[0,0.5],[1,0.5]];portConstraint=eastwest;whiteSpace=wrap;html=1;" vertex="1" parent="yZ1VxGtoj1wX081cR8Rx-25">
          <mxGeometry y="78" width="160" height="26" as="geometry" />
        </mxCell>
        <mxCell id="yZ1VxGtoj1wX081cR8Rx-33" value="- tgl_kadaluarsa : date" style="text;strokeColor=none;fillColor=none;align=left;verticalAlign=top;spacingLeft=4;spacingRight=4;overflow=hidden;rotatable=0;points=[[0,0.5],[1,0.5]];portConstraint=eastwest;whiteSpace=wrap;html=1;" vertex="1" parent="yZ1VxGtoj1wX081cR8Rx-25">
          <mxGeometry y="104" width="160" height="26" as="geometry" />
        </mxCell>
        <mxCell id="yZ1VxGtoj1wX081cR8Rx-29" value="- stok&lt;span style=&quot;white-space: pre;&quot;&gt;&#x9;&lt;/span&gt;: int" style="text;strokeColor=none;fillColor=none;align=left;verticalAlign=top;spacingLeft=4;spacingRight=4;overflow=hidden;rotatable=0;points=[[0,0.5],[1,0.5]];portConstraint=eastwest;whiteSpace=wrap;html=1;" vertex="1" parent="yZ1VxGtoj1wX081cR8Rx-25">
          <mxGeometry y="130" width="160" height="26" as="geometry" />
        </mxCell>
        <mxCell id="yZ1VxGtoj1wX081cR8Rx-31" value="" style="line;strokeWidth=1;fillColor=none;align=left;verticalAlign=middle;spacingTop=-1;spacingLeft=3;spacingRight=3;rotatable=0;labelPosition=right;points=[];portConstraint=eastwest;strokeColor=inherit;" vertex="1" parent="yZ1VxGtoj1wX081cR8Rx-25">
          <mxGeometry y="156" width="160" height="8" as="geometry" />
        </mxCell>
        <mxCell id="yZ1VxGtoj1wX081cR8Rx-34" value="+ cek_tgl_kadaluarsa()" style="text;strokeColor=none;fillColor=none;align=left;verticalAlign=top;spacingLeft=4;spacingRight=4;overflow=hidden;rotatable=0;points=[[0,0.5],[1,0.5]];portConstraint=eastwest;whiteSpace=wrap;html=1;" vertex="1" parent="yZ1VxGtoj1wX081cR8Rx-25">
          <mxGeometry y="164" width="160" height="26" as="geometry" />
        </mxCell>
        <mxCell id="yZ1VxGtoj1wX081cR8Rx-32" value="+ update_status()" style="text;strokeColor=none;fillColor=none;align=left;verticalAlign=top;spacingLeft=4;spacingRight=4;overflow=hidden;rotatable=0;points=[[0,0.5],[1,0.5]];portConstraint=eastwest;whiteSpace=wrap;html=1;" vertex="1" parent="yZ1VxGtoj1wX081cR8Rx-25">
          <mxGeometry y="190" width="160" height="26" as="geometry" />
        </mxCell>
        <mxCell id="yZ1VxGtoj1wX081cR8Rx-35" value="peringatan_kadaluarsa" style="swimlane;fontStyle=1;align=center;verticalAlign=top;childLayout=stackLayout;horizontal=1;startSize=26;horizontalStack=0;resizeParent=1;resizeParentMax=0;resizeLast=0;collapsible=1;marginBottom=0;whiteSpace=wrap;html=1;" vertex="1" parent="1">
          <mxGeometry x="830" y="660" width="160" height="216" as="geometry" />
        </mxCell>
        <mxCell id="yZ1VxGtoj1wX081cR8Rx-36" value="- idPeringatan&lt;span style=&quot;white-space: pre;&quot;&gt;&#x9;&lt;/span&gt;: int" style="text;strokeColor=none;fillColor=none;align=left;verticalAlign=top;spacingLeft=4;spacingRight=4;overflow=hidden;rotatable=0;points=[[0,0.5],[1,0.5]];portConstraint=eastwest;whiteSpace=wrap;html=1;" vertex="1" parent="yZ1VxGtoj1wX081cR8Rx-35">
          <mxGeometry y="26" width="160" height="26" as="geometry" />
        </mxCell>
        <mxCell id="yZ1VxGtoj1wX081cR8Rx-45" value="- idObat&lt;span style=&quot;white-space: pre;&quot;&gt;&#x9;&lt;/span&gt;: int" style="text;strokeColor=none;fillColor=none;align=left;verticalAlign=top;spacingLeft=4;spacingRight=4;overflow=hidden;rotatable=0;points=[[0,0.5],[1,0.5]];portConstraint=eastwest;whiteSpace=wrap;html=1;" vertex="1" parent="yZ1VxGtoj1wX081cR8Rx-35">
          <mxGeometry y="52" width="160" height="26" as="geometry" />
        </mxCell>
        <mxCell id="yZ1VxGtoj1wX081cR8Rx-46" value="- status&amp;nbsp;&lt;span style=&quot;white-space: pre;&quot;&gt;&#x9;&lt;/span&gt;: string" style="text;strokeColor=none;fillColor=none;align=left;verticalAlign=top;spacingLeft=4;spacingRight=4;overflow=hidden;rotatable=0;points=[[0,0.5],[1,0.5]];portConstraint=eastwest;whiteSpace=wrap;html=1;" vertex="1" parent="yZ1VxGtoj1wX081cR8Rx-35">
          <mxGeometry y="78" width="160" height="26" as="geometry" />
        </mxCell>
        <mxCell id="yZ1VxGtoj1wX081cR8Rx-47" value="- tgl_peringatan : date" style="text;strokeColor=none;fillColor=none;align=left;verticalAlign=top;spacingLeft=4;spacingRight=4;overflow=hidden;rotatable=0;points=[[0,0.5],[1,0.5]];portConstraint=eastwest;whiteSpace=wrap;html=1;" vertex="1" parent="yZ1VxGtoj1wX081cR8Rx-35">
          <mxGeometry y="104" width="160" height="26" as="geometry" />
        </mxCell>
        <mxCell id="yZ1VxGtoj1wX081cR8Rx-41" value="" style="line;strokeWidth=1;fillColor=none;align=left;verticalAlign=middle;spacingTop=-1;spacingLeft=3;spacingRight=3;rotatable=0;labelPosition=right;points=[];portConstraint=eastwest;strokeColor=inherit;" vertex="1" parent="yZ1VxGtoj1wX081cR8Rx-35">
          <mxGeometry y="130" width="160" height="8" as="geometry" />
        </mxCell>
        <mxCell id="yZ1VxGtoj1wX081cR8Rx-42" value="+ buat_peringatan()" style="text;strokeColor=none;fillColor=none;align=left;verticalAlign=top;spacingLeft=4;spacingRight=4;overflow=hidden;rotatable=0;points=[[0,0.5],[1,0.5]];portConstraint=eastwest;whiteSpace=wrap;html=1;" vertex="1" parent="yZ1VxGtoj1wX081cR8Rx-35">
          <mxGeometry y="138" width="160" height="26" as="geometry" />
        </mxCell>
        <mxCell id="yZ1VxGtoj1wX081cR8Rx-43" value="+ kirim_notifikasi()" style="text;strokeColor=none;fillColor=none;align=left;verticalAlign=top;spacingLeft=4;spacingRight=4;overflow=hidden;rotatable=0;points=[[0,0.5],[1,0.5]];portConstraint=eastwest;whiteSpace=wrap;html=1;" vertex="1" parent="yZ1VxGtoj1wX081cR8Rx-35">
          <mxGeometry y="164" width="160" height="26" as="geometry" />
        </mxCell>
        <mxCell id="yZ1VxGtoj1wX081cR8Rx-44" value="+ tandai_sudah_ditindak()" style="text;strokeColor=none;fillColor=none;align=left;verticalAlign=top;spacingLeft=4;spacingRight=4;overflow=hidden;rotatable=0;points=[[0,0.5],[1,0.5]];portConstraint=eastwest;whiteSpace=wrap;html=1;" vertex="1" parent="yZ1VxGtoj1wX081cR8Rx-35">
          <mxGeometry y="190" width="160" height="26" as="geometry" />
        </mxCell>
        <mxCell id="yZ1VxGtoj1wX081cR8Rx-50" value="1" style="text;html=1;align=center;verticalAlign=middle;resizable=0;points=[];autosize=1;strokeColor=none;fillColor=none;" vertex="1" parent="1">
          <mxGeometry x="790" y="576" width="30" height="30" as="geometry" />
        </mxCell>
        <mxCell id="yZ1VxGtoj1wX081cR8Rx-51" value="0..*" style="text;html=1;align=center;verticalAlign=middle;resizable=0;points=[];autosize=1;strokeColor=none;fillColor=none;" vertex="1" parent="1">
          <mxGeometry x="905" y="630" width="40" height="30" as="geometry" />
        </mxCell>
        <mxCell id="yZ1VxGtoj1wX081cR8Rx-52" value="0..*" style="text;html=1;align=center;verticalAlign=middle;resizable=0;points=[];autosize=1;strokeColor=none;fillColor=none;" vertex="1" parent="1">
          <mxGeometry x="990" y="700" width="40" height="30" as="geometry" />
        </mxCell>
        <mxCell id="yZ1VxGtoj1wX081cR8Rx-53" value="1" style="text;html=1;align=center;verticalAlign=middle;resizable=0;points=[];autosize=1;strokeColor=none;fillColor=none;" vertex="1" parent="1">
          <mxGeometry x="1050" y="576" width="30" height="30" as="geometry" />
        </mxCell>
      </root>
    </mxGraphModel>
  </diagram>
</mxfile>
